<svg width="56" height="56" viewBox="0 0 56 56" fill="none" xmlns="http://www.w3.org/2000/svg">
<path d="M28 54.9526C42.9117 54.9526 55 42.8749 55 27.9763C55 13.0777 42.9117 1 28 1C13.0883 1 1 13.0777 1 27.9763C1 42.8749 13.0883 54.9526 28 54.9526Z" fill="white"/>
<path d="M28 55.1026C42.9944 55.1026 55.15 42.9579 55.15 27.9763C55.15 12.9947 42.9944 0.85 28 0.85C13.0056 0.85 0.85 12.9947 0.85 27.9763C0.85 42.9579 13.0056 55.1026 28 55.1026Z" stroke="black" stroke-opacity="0.2" stroke-width="0.3"/>
<path d="M35.3911 43.9225H21.1869C20.7016 43.9225 20.2362 43.7295 19.8931 43.3859C19.5499 43.0423 19.3572 42.5762 19.3572 42.0903C19.3572 41.6033 19.5495 41.136 19.8923 40.7905C20.2351 40.445 20.7005 40.2493 21.1869 40.2461H35.3911C35.8774 40.2493 36.3428 40.445 36.6856 40.7905C37.0284 41.136 37.2208 41.6033 37.2207 42.0903C37.2207 42.5762 37.028 43.0423 36.6848 43.3859C36.3417 43.7295 35.8763 43.9225 35.3911 43.9225Z" fill="#263238"/>
<path d="M29.0949 10.4375H27.843V16.7537H29.0949V10.4375Z" fill="#263238"/>
<path d="M10.0642 35.691C12.0852 35.691 13.7236 34.0504 13.7236 32.0267C13.7236 30.0029 12.0852 28.3623 10.0642 28.3623C8.04316 28.3623 6.40479 30.0029 6.40479 32.0267C6.40479 34.0504 8.04316 35.691 10.0642 35.691Z" fill="#92E3A9"/>
<path d="M47.0671 35.4508C49.0881 35.4508 50.7265 33.8102 50.7265 31.7864C50.7265 29.7626 49.0881 28.1221 47.0671 28.1221C45.046 28.1221 43.4077 29.7626 43.4077 31.7864C43.4077 33.8102 45.046 35.4508 47.0671 35.4508Z" fill="#92E3A9"/>
<path d="M29.0109 15.4287C29.0109 15.4287 43.9133 15.2479 46.2727 28.1816C48.632 41.1153 36.0288 41.3443 32.4055 41.5854C30.7684 41.6939 27.2535 41.7059 24.1478 41.6577C17.2744 41.5372 12.4233 40.2113 10.7742 33.8228C10.5765 33.0731 10.4516 32.3062 10.401 31.5325C9.96769 24.5414 14.6864 15.0912 29.0109 15.4287Z" fill="#92E3A9"/>
<path d="M18.2016 35.1119L39.869 35.4494C40.9588 35.4656 42.0106 35.0482 42.7936 34.289C43.5766 33.5298 44.027 32.4906 44.046 31.3994C44.0589 30.3081 43.639 29.2562 42.8786 28.4744C42.1181 27.6926 41.0791 27.2447 39.9894 27.2288L18.322 26.8913C17.7819 26.8817 17.2452 26.9789 16.7428 27.1775C16.2403 27.376 15.782 27.6718 15.3939 28.0481C15.0059 28.4243 14.6958 28.8736 14.4815 29.3701C14.2672 29.8666 14.1528 30.4005 14.145 30.9413C14.137 31.4821 14.2357 32.0192 14.4354 32.5217C14.6351 33.0242 14.9319 33.4823 15.3088 33.8698C15.6856 34.2572 16.1352 34.5664 16.6316 34.7796C17.128 34.9927 17.6615 35.1057 18.2016 35.1119Z" fill="#263238"/>
<path d="M35.3669 30.9509C35.3987 31.1214 35.4639 31.2839 35.5587 31.4291C35.6534 31.5742 35.776 31.6991 35.9192 31.7966C36.0625 31.8941 36.2236 31.9623 36.3932 31.9971C36.5629 32.0319 36.7377 32.0328 36.9077 31.9996C37.091 31.9811 37.2684 31.9245 37.4285 31.8334C37.5887 31.7423 37.7281 31.6189 37.8379 31.4708C37.9477 31.3227 38.0254 31.1533 38.0661 30.9734C38.1068 30.7936 38.1096 30.6072 38.0743 30.4262C38.0389 30.2452 37.9663 30.0736 37.861 29.9223C37.7557 29.771 37.6201 29.6433 37.4627 29.5475C37.3053 29.4517 37.1297 29.3898 36.9471 29.3658C36.7645 29.3418 36.5789 29.3562 36.4022 29.408C36.233 29.4412 36.072 29.5075 35.9284 29.603C35.7848 29.6985 35.6614 29.8214 35.5653 29.9647C35.4691 30.108 35.4021 30.2688 35.3681 30.438C35.3341 30.6073 35.3337 30.7815 35.3669 30.9509Z" fill="white"/>
<path d="M20.2357 30.7101C20.2542 30.8936 20.3107 31.0712 20.4017 31.2316C20.4926 31.392 20.6159 31.5316 20.7638 31.6415C20.9117 31.7514 21.0809 31.8293 21.2605 31.87C21.4401 31.9108 21.6262 31.9136 21.807 31.8782C21.9877 31.8428 22.1591 31.7701 22.3102 31.6647C22.4613 31.5592 22.5888 31.4234 22.6845 31.2658C22.7802 31.1082 22.842 30.9324 22.866 30.7495C22.8899 30.5667 22.8756 30.3808 22.8238 30.2039C22.7309 29.8867 22.5231 29.6157 22.2411 29.444C21.9591 29.2723 21.6232 29.2122 21.2992 29.2756C20.9753 29.3389 20.6867 29.5212 20.49 29.7865C20.2932 30.0519 20.2025 30.3813 20.2357 30.7101Z" fill="white"/>
<path d="M30.5277 10.3548C30.5301 10.763 30.4113 11.1627 30.1866 11.5032C29.9619 11.8437 29.6413 12.1098 29.2654 12.2677C28.8895 12.4255 28.4752 12.4681 28.0751 12.3899C27.675 12.3117 27.3072 12.1164 27.0181 11.8286C26.729 11.5408 26.5317 11.1736 26.4513 10.7734C26.3709 10.3733 26.411 9.95821 26.5664 9.58088C26.7219 9.20354 26.9857 8.88092 27.3245 8.65389C27.6632 8.42687 28.0617 8.30567 28.4693 8.30566C29.0131 8.30565 29.5349 8.52115 29.9205 8.9051C30.3062 9.28904 30.5245 9.81023 30.5277 10.3548Z" fill="#92E3A9"/>
<path d="M31.5747 30.3516C31.5747 30.3516 31.659 30.448 31.7072 30.665C31.7448 30.9729 31.7161 31.2852 31.6229 31.581C31.4906 32.0387 31.2417 32.4541 30.9007 32.7864C30.4834 33.2038 29.9347 33.4637 29.3478 33.5217C28.7609 33.5705 28.175 33.4174 27.6867 33.0878C27.3002 32.8255 26.9823 32.4742 26.7598 32.0632C26.6172 31.7864 26.5351 31.4823 26.519 31.1712C26.519 30.9542 26.519 30.8337 26.5913 30.8337C26.6635 30.8337 26.7116 31.2918 27.1089 31.8583C27.3406 32.1722 27.6308 32.4383 27.9635 32.6418C28.3661 32.8815 28.8327 32.9909 29.2997 32.9552C29.748 32.8977 30.1681 32.7042 30.5034 32.4007C30.8068 32.1487 31.0495 31.8314 31.2136 31.4726C31.5266 30.8458 31.4784 30.3516 31.5747 30.3516Z" fill="white"/>
<path d="M14.1567 51.1418C14.1567 51.1418 18.5865 46.8145 27.8433 46.8145C37.1001 46.8145 41.8429 51.1418 41.8429 51.1418C37.6653 53.6658 32.8789 54.9998 27.9998 54.9998C23.1207 54.9998 18.3343 53.6658 14.1567 51.1418Z" fill="#92E3A9"/>
</svg>
